{"title":"Green Lantern 2011 V2 TS XViD DTRG NO RAR","uid":6487697,"size":1147705337,"categoryP":"video","categoryS":"movies","magnet":"?xt=urn:btih:c95f45c2947688d7f90efd070c1f6e20df2b3ba6&amp;dn=Green+Lantern+2011+V2+TS+XViD+DTRG+NO+RAR&amp;tr=udp%3A%2F%2Ftracker.openbittorrent.com%3A80&amp;tr=udp%3A%2F%2Fopen.demonii.com%3A1337&amp;tr=udp%3A%2F%2Ftracker.coppersurfer.tk%3A6969&amp;tr=udp%3A%2F%2Fexodus.desync.com%3A6969","seeders":1,"leechers":0,"uploader":"razvanripper","files":-1,"time":1308763388,"description":" \n\n\n\nFormat : AVI\nFormat/Info : Audio Video Interleave\nFile size : 1.06 GiB\nDuration : 1h 41mn\nOverall bit rate : 1 502 Kbps\nWriting library : VirtualDub build 32842/release\n\nVideo\nID : 0\nFormat : MPEG-4 Visual\nFormat profile : Advanced Simple@L5\nFormat settings, BVOP : 2\nFormat settings, QPel : No\nFormat settings, GMC : No warppoints\nFormat settings, Matrix : Default (H.263)\nMuxing mode : Packed bitstream\nCodec ID : XVID\nCodec ID/Hint : XviD\nDuration : 1h 41mn\nBit rate : 1 364 Kbps\nWidth : 692 pixels\nHeight : 308 pixels\nDisplay aspect ratio : 2.25:1\nFrame rate : 25.000 fps\nColor space : YUV\nChroma subsampling : 4:2:0\nBit depth : 8 bits\nScan type : Progressive\nCompression mode : Lossy\nBits/(Pixel*Frame) : 0.256\nStream size : 986 MiB (91%)\nWriting library : XviD 64\n\nAudio\nID : 1\nFormat : MPEG Audio\nFormat version : Version 1\nFormat profile : Layer 3\nMode : Joint stereo\nMode extension : MS Stereo\nCodec ID : 55\nCodec ID/Hint : MP3\nDuration : 1h 41mn\nBit rate mode : Constant\nBit rate : 128 Kbps\nChannel(s) : 2 channels\nSampling rate : 44.1 KHz\nCompression mode : Lossy\nStream size : 92.5 MiB (9%)\nAlignment : Split accross interleaves\nInterleave, duration : 40 ms (1.00 video frame)\nInterleave, preload duration : 500 ms\nWriting library : LAME3.98r\nEncoding settings : -m j -V 4 -q 2 -lowpass 17 -b 128\n\n\n\n\n &lt;a href=&quot;\nhttp://www.imdb.com/title/tt1133985/&quot; rel=&quot;nofollow&quot; target=&quot;_NEW&quot;&gt;\nhttp://www.imdb.com/title/tt1133985/&lt;/a&gt;\n\n\n\n\n \n\n\nUsers: 6.4/10 (4,062 votes) 140 reviews | Critics: 36 reviews Metascore: 40/100 (based on 37 reviews from Metacritic.com)\n\nA test pilot is granted a mystical green ring that bestows him with otherworldly powers, as well as membership into an intergalactic squadron tasked with keeping peace within the universe.\nDirector:\nMartin Campbell\nWriters:\nGreg Berlanti (screenplay), Michael Green (screenplay), and 5 more credits Ã‚Â»\nStars:\nRyan Reynolds, Blake Lively and Peter Sarsgaard\n\n\n\n\n \n\n\n\n\n \n\n \n\n \n\n\n\nSource Used \n\nSource Used\n\nVIDEO:Green Lantern DVD TS SORS RUSSIAN 6.17 GB ...IMAGiNE ....... Thanks\n\nAUDIO: ...........IMAGiNE ...........................................Thanks\n\n\nTotal rework of the rgb colours some will like some wont but had a go at something different this time ,also touched on the input/output levels and slight smoother and sharpen \n\nSample included \n\nEnjoy !\n\n\n\nGreetz to IMAGiNE,Flawl3ss,DiLLoN,BDK,NOiR,TOXiC,THC,Ez,Rx,Boobyblue,TaRiQ786,LKRG,\n\n\n\n\n\n \n\n\n\n\n\n \n\n\n\nCurrently looking for encoders/syncers if anything to offer contact me on &lt;a class=&quot;__cf_email__&quot; href=&quot;/cdn-cgi/l/email-protection&quot; data-cfemail=&quot;197d6d6b7e59716c6a71377870&quot;&gt;[email&amp;#160;protected]&lt;/a&gt;&lt;script cf-hash='f9e31' type=&quot;text/javascript&quot;&gt;\n/* &lt;![CDATA[ */!function(){try{var t=&quot;currentScript&quot;in document?document.currentScript:function(){for(var t=document.getElementsByTagName(&quot;script&quot;),e=t.length;e--;)if(t[e].getAttribute(&quot;cf-hash&quot;))return t[e]}();if(t&amp;&amp;t.previousSibling){var e,r,n,i,c=t.previousSibling,a=c.getAttribute(&quot;data-cfemail&quot;);if(a){for(e=&quot;&quot;,r=parseInt(a.substr(0,2),16),n=2;a.length-n;n+=2)i=parseInt(a.substr(n,2),16)^r,e+=String.fromCharCode(i);e=document.createTextNode(e),c.parentNode.replaceChild(e,c)}}}catch(u){}}();/* ]]&gt; */&lt;/script&gt;\n\n","torrent":{"xt":"urn:btih:c95f45c2947688d7f90efd070c1f6e20df2b3ba6","amp;dn":"Green+Lantern+2011+V2+TS+XViD+DTRG+NO+RAR","amp;tr":["udp%3A%2F%2Ftracker.openbittorrent.com%3A80","udp%3A%2F%2Fopen.demonii.com%3A1337","udp%3A%2F%2Ftracker.coppersurfer.tk%3A6969","udp%3A%2F%2Fexodus.desync.com%3A6969"],"infoHash":"c95f45c2947688d7f90efd070c1f6e20df2b3ba6","infoHashBuffer":{"type":"Buffer","data":[201,95,69,194,148,118,136,215,249,14,253,7,12,31,110,32,223,43,59,166]},"announce":[],"urlList":[]}}